<?xml version="1.0" standalone="no"?><!DOCTYPE svg PUBLIC "-//W3C//DTD SVG 1.1//EN" "http://www.w3.org/Graphics/SVG/1.1/DTD/svg11.dtd"><svg t="1589905393959" class="icon" viewBox="0 0 1026 1024" version="1.1" xmlns="http://www.w3.org/2000/svg" p-id="4834" xmlns:xlink="http://www.w3.org/1999/xlink" width="200.390625" height="200"><defs><style type="text/css"></style></defs><path d="M1004.32384 89.26208c-60.8512 0-86.272 52.31104-105.3184 101.33504l-146.0736 516.75648c-29.45536 74.69568-81.36704 88.8832-166.68672 88.8832L23.30112 796.2368c-11.93984 0-21.6064 9.68704-21.6064 21.61152 0 11.9296 9.67168 21.6064 21.6064 21.6064l562.944 0c97.024 0 169.41568-19.95776 207.32416-117.37088l146.08896-516.7872c21.25312-54.41024 37.632-72.82176 64.6656-72.82176 11.9296 0 21.61152-9.67168 21.61152-21.6064C1025.93536 98.92864 1016.25344 89.26208 1004.32384 89.26208z" p-id="4835" fill="#e6e6e6"></path><path d="M123.95008 916.24448m-54.50752 0a10.646 10.646 0 1 0 109.01504 0 10.646 10.646 0 1 0-109.01504 0Z" p-id="4836" fill="#e6e6e6"></path><path d="M614.87616 916.24448m-54.50752 0a10.646 10.646 0 1 0 109.01504 0 10.646 10.646 0 1 0-109.01504 0Z" p-id="4837" fill="#e6e6e6"></path><path d="M207.45728 731.99616l352.1024 0c86.59968 0 157.05088-70.4512 157.05088-157.05088l0-214.9888c0-86.59968-70.4512-157.04576-157.05088-157.04576l-352.1024 0c-86.59968 0-157.04576 70.4512-157.04576 157.04576l0 214.9888C50.41152 661.54496 120.8576 731.99616 207.45728 731.99616zM332.31872 688.77824 332.31872 246.12352l100.69504 0 0 442.65984L332.31872 688.78336zM673.39264 359.95648l0 214.9888c0 62.7712-51.06688 113.83296-113.83296 113.83296L476.22656 688.77824 476.22656 246.12352l83.33312 0C622.33088 246.12352 673.39264 297.18528 673.39264 359.95648zM93.62432 359.95648c0-62.76608 51.06688-113.83296 113.83296-113.83296l81.64352 0 0 442.65984L207.45728 688.78336c-62.76608 0-113.83296-51.06688-113.83296-113.83296L93.62432 359.95648z" p-id="4838" fill="#e6e6e6"></path><path d="M354.4064 104.5248l58.20928 0c36.21376 0 84.36224 10.14784 84.36224 97.92l43.21792 0c0-89.69216-46.50496-141.13792-127.58016-141.13792L354.4064 61.30688c-81.08544 0-127.5904 51.44576-127.5904 141.13792l43.2128 0C270.0288 114.67264 318.1824 104.5248 354.4064 104.5248z" p-id="4839" fill="#e6e6e6"></path></svg>