<?xml version="1.0" standalone="no"?><!DOCTYPE svg PUBLIC "-//W3C//DTD SVG 1.1//EN" "http://www.w3.org/Graphics/SVG/1.1/DTD/svg11.dtd"><svg t="1589905020165" class="icon" viewBox="0 0 1024 1024" version="1.1" xmlns="http://www.w3.org/2000/svg" p-id="5147" xmlns:xlink="http://www.w3.org/1999/xlink" width="200" height="200"><defs><style type="text/css"></style></defs><path d="M426.666667 426.666667a42.666667 42.666667 0 1 0-42.666667 42.666666 42.666667 42.666667 0 0 0 42.666667-42.666666z m192 173.226666a42.666667 42.666667 0 0 0-58.453334 15.36 55.466667 55.466667 0 0 1-96.426666 0 42.666667 42.666667 0 0 0-58.453334-15.36 42.666667 42.666667 0 0 0-15.786666 58.026667 141.226667 141.226667 0 0 0 244.906666 0 42.666667 42.666667 0 0 0-15.786666-58.026667zM640 384a42.666667 42.666667 0 1 0 42.666667 42.666667 42.666667 42.666667 0 0 0-42.666667-42.666667z m-128-298.666667a426.666667 426.666667 0 1 0 426.666667 426.666667A426.666667 426.666667 0 0 0 512 85.333333z m0 768A341.333333 341.333333 0 0 1 384 194.986667 128 128 0 0 0 384 213.333333a128 128 0 0 0 128 128 42.666667 42.666667 0 0 0 0-85.333333 42.666667 42.666667 0 0 1 0-85.333333 341.333333 341.333333 0 0 1 0 682.666666z" p-id="5148" fill="#e6e6e6"></path></svg>